<?xml version="1.0" encoding="UTF-8" standalone="no"?><!-- Generator: Gravit.io --><svg xmlns="http://www.w3.org/2000/svg" xmlns:xlink="http://www.w3.org/1999/xlink" style="isolation:isolate" viewBox="0 0 315 315" width="315pt" height="315pt"><defs><clipPath id="_clipPath_Sapf79mvZaZokSDDe9JFwVlt0kL6NcTB"><rect width="315" height="315"/></clipPath></defs><g clip-path="url(#_clipPath_Sapf79mvZaZokSDDe9JFwVlt0kL6NcTB)"><path d=" M 121.587 5.175 L 126.303 10.979 L 138.456 8.984 L 144.46 2.835 L 156.087 6.263 L 160.222 13.827 L 152.713 29.39 L 160.44 29.734 L 165.809 37.316 L 175.785 38.187 L 183.476 44.934 L 188.809 43.157 L 194.922 45.805 L 193.96 57.813 L 199.075 57.595 L 199.765 60.116 L 194.25 61.985 L 201.234 62.819 L 196.518 67.281 L 185.49 65.776 L 186.995 70.473 L 181.753 72.487 L 180.592 77.203 L 184.637 76.514 L 192.165 86.163 L 212.117 84.132 L 203.592 88.848 L 203.537 92.24 L 248.938 95.849 L 267.041 77.022 L 274.641 83.57 L 286.558 74.41 L 289.714 75.389 L 288.716 81.756 L 294.085 85.402 L 294.085 85.402 L 294.883 85.402 L 294.883 85.402 L 291.8 93.147 L 304.261 94.616 L 303.118 100.547 L 307 102.706 L 307 102.706 L 277.942 127.773 L 207.31 225.758 L 213.641 231.961 L 219.046 254.326 L 218.32 273.626 L 215.581 276.51 L 219.118 279.086 L 214.765 285.888 L 216.035 287.665 L 220.08 284.636 L 218.266 288.663 L 223.798 288.808 L 228.26 296.553 L 234.899 299.147 L 232.196 304.171 L 234.881 314.129 L 230.165 315 L 221.64 306.439 L 211.863 308.778 L 201.433 299.147 L 191.602 300.979 L 183.095 298.712 L 177.037 291.093 L 171.613 292.581 L 161.365 289.642 L 161.129 284.509 L 157.32 285.978 L 141.721 278.813 L 139.889 268.275 L 132.089 256.811 L 125.541 256.43 L 118.631 249.502 L 113.751 251.624 L 112.935 255.705 L 105.444 245.856 L 98.497 245.058 L 95.558 239.815 L 77.964 245.638 L 69.402 242.282 L 69.402 242.282 L 68.586 233.394 L 71.906 231.816 L 65.176 223.273 L 66.718 218.974 L 61.385 215.582 L 66.101 206.078 L 64.777 197.081 L 60.261 187.486 L 54.801 186.724 L 52.787 183.187 L 42.902 182.933 L 44.28 176.385 L 40.907 172.14 L 51.101 170 L 51.409 164.304 L 56.959 164.613 L 58.41 161.783 L 56.615 158.119 L 46.167 157.339 L 42.63 147.563 L 47.328 139.981 L 42.775 135.192 L 46.965 132.072 L 44.734 129.297 L 48.362 128.444 L 47.291 123.474 L 42.666 122.259 L 45.877 121.516 L 42.322 120.518 L 45.006 108.673 L 41.596 100.729 L 49.668 91.278 L 48.579 84.277 L 48.579 84.277 L 49.033 84.223 L 49.033 84.223 L 49.94 83.57 L 49.94 83.57 L 60.17 72.559 L 74.917 66.574 L 75.207 60.552 L 91.822 56.071 L 100.002 40.363 L 109.235 32.763 L 112.699 34.65 L 121.587 5.175 Z " fill="rgb(0,0,0)"/></g></svg>