<?xml version="1.0" encoding="UTF-8" standalone="no"?><!-- Generator: Gravit.io --><svg xmlns="http://www.w3.org/2000/svg" xmlns:xlink="http://www.w3.org/1999/xlink" style="isolation:isolate" viewBox="0 0 1024 768" width="1024pt" height="768pt"><defs><clipPath id="_clipPath_Pdf8ihTPpAcSU6oOL1J4AZEa2XvlpPNv"><rect width="1024" height="768"/></clipPath></defs><g clip-path="url(#_clipPath_Pdf8ihTPpAcSU6oOL1J4AZEa2XvlpPNv)"><path d=" M 527.688 0 L 652.557 74.408 L 703.238 120.714 L 699.192 140.287 L 663.929 86.217 L 569.785 27.554 L 560.436 61.287 L 586.186 81.57 L 585.64 117.434 L 601.44 112.623 L 600.401 130.555 L 618.169 164.561 L 611.608 172.105 L 597.613 167.404 L 615.545 175.659 L 617.294 219.67 L 638.124 242.413 L 670.872 247.115 L 659.501 250.614 L 673.879 264.773 L 728.386 280.847 L 743.53 269.475 L 763.376 281.831 L 832.645 276.965 L 904.155 259.908 L 979 222.02 L 899.836 269.639 L 837.62 286.861 L 849.21 300.036 L 850.304 322.178 L 850.304 322.178 L 870.587 358.207 L 846.531 377.998 L 853.693 390.08 L 836.964 438.082 L 861.293 449.125 L 855.06 458.638 L 861.347 468.752 L 871.953 463.613 L 900.929 478.648 L 892.073 495.487 L 900.164 512.872 L 960.685 499.696 L 944.338 540.864 L 944.338 540.864 L 944.338 542.668 L 944.338 542.668 L 922.251 581.485 L 929.14 587.334 L 923.29 603.462 L 911.59 585.913 L 880.646 577.931 L 868.564 584.546 L 863.206 620.739 L 837.456 648.238 L 836.581 676.503 L 824.061 677.323 L 808.097 695.857 L 810.558 711.821 L 810.558 711.821 L 760.151 705.261 L 730.191 715.812 L 731.12 705.807 L 685.415 699.848 L 675.355 678.854 L 685.305 646.981 L 672.567 655.838 L 646.762 649.605 L 638.288 661.687 L 620.848 659.61 L 623.582 669.724 L 613.139 672.13 L 600.073 657.86 L 601.44 644.411 L 586.405 645.505 L 582.523 654.58 L 517.027 646.215 L 518.394 622.379 L 495.651 621.613 L 495.651 621.613 L 495.651 615.654 L 495.651 615.654 L 485.099 622.652 L 479.14 609.422 L 465.855 614.014 L 453.062 600.456 L 429.826 633.696 L 410.254 615.107 L 381.278 612.21 L 391.939 640.366 L 367.337 654.362 L 342.899 651.956 L 330.16 684.595 L 335.682 700.941 L 314.251 701.926 L 319.281 717.999 L 298.014 703.511 L 286.806 713.789 L 270.241 710.017 L 265.593 690.171 L 235.743 712.258 L 225.738 764.579 L 225.738 764.579 L 207.642 758.128 L 207.642 758.128 L 206.33 757.636 L 206.33 757.636 L 196.598 743.038 L 175.55 739.977 L 175.55 739.977 L 168.333 740.305 L 168.333 740.305 L 149.253 744.132 L 127.056 735.22 L 112.678 749.162 L 95.183 749.271 L 95.292 731.229 L 78.289 734.4 L 59.482 670.927 L 59.482 670.927 L 47.619 620.739 L 76.431 591.435 L 52.156 573.393 L 52.32 552.837 L 59.646 545.784 L 85.069 549.775 L 89.497 531.078 L 54.179 511.123 L 53.469 491.222 L 42.316 478.429 L 33.896 474.001 L 29.741 488.051 L 29.741 488.051 L 25.86 488.379 L 25.86 488.379 L 23.946 461.481 L 23.946 461.481 L 26.242 458.693 L 26.242 458.693 L 32.967 436.277 L 22.634 421.133 L 29.851 411.347 L 0 356.129 L 5.248 344.594 L 46.416 329.012 L 50.079 316.219 L 33.295 296.483 L 30.671 269.366 L 45.432 265.593 L 43.136 223.551 L 35.263 205.346 L 19.244 198.73 L 3.882 153.955 L 3.882 153.955 L 61.341 139.139 L 110.491 96.222 L 181.946 59.045 L 413.151 3.226 L 527.688 0 L 527.688 0 Z " fill="rgb(0,0,0)"/></g></svg>