<?xml version="1.0" encoding="UTF-8" standalone="no"?><!-- Generator: Gravit.io --><svg xmlns="http://www.w3.org/2000/svg" xmlns:xlink="http://www.w3.org/1999/xlink" style="isolation:isolate" viewBox="0 0 560 315" width="560pt" height="315pt"><defs><clipPath id="_clipPath_jK1avq58mOvxLGmZKOiGzcbRVB2IFhE9"><rect width="560" height="315"/></clipPath></defs><g clip-path="url(#_clipPath_jK1avq58mOvxLGmZKOiGzcbRVB2IFhE9)"><clipPath id="_clipPath_LRpzSRcfCJrAhOaWYKNzXIczZFYWOYwt"><rect x="0" y="0" width="560" height="315" transform="matrix(1,0,0,1,0,0)" fill="rgb(255,255,255)"/></clipPath><g clip-path="url(#_clipPath_LRpzSRcfCJrAhOaWYKNzXIczZFYWOYwt)"><path d=" M 476 122.008 L 388.396 200.334 L 365.525 162.067 L 476 122.008 L 476 122.008 Z " fill-rule="evenodd" fill="rgb(235,106,128)"/><g><path d=" M 74.043 98.237 L 86.912 98.237 L 86.912 120.067 L 74.043 120.067 L 74.043 98.237 L 74.043 98.237 Z " fill="rgb(146,143,161)"/><path d=" M 318.545 98.237 L 331.414 98.237 L 331.414 120.067 L 318.545 120.067 L 318.545 98.237 L 318.545 98.237 Z " fill="rgb(146,143,161)"/><path d=" M 363.585 278.337 L 415.059 278.337 L 415.059 207.389 L 385.848 141.314 C 380.199 128.532 365.792 120.067 349.7 120.067 L 67.609 120.067 C 46.286 120.067 29.003 134.726 29.003 152.813 L 29.003 278.337 L 80.478 278.337" fill="rgb(202,107,74)"/><path d=" M 151.254 245.592 L 151.254 141.898 L 267.071 141.898 L 267.071 256.507 L 164.123 256.507" fill="rgb(219,140,116)"/><g><path d=" M -40.25 50.25 L -15.25 50.25 L -15.25 56.25 L -40.25 56.25 L -40.25 50.25 Z " fill="rgb(224,224,224)"/><path d=" M -52.25 50.25 L -40.25 50.25 L -40.25 56.25 L -52.25 56.25 L -52.25 50.25 Z " fill="rgb(255,152,0)"/><path d=" M -16.25 40.25 L -18.25 40.25 C -17.648 39.75 -17.25 39.05 -17.25 38.25 C -17.25 36.55 -19.05 35.25 -21.25 35.25 L -21.648 35.25 C -20.75 34.648 -20.25 33.75 -20.25 32.75 C -20.25 30.852 -22.25 29.25 -24.75 29.25 C -27.25 29.25 -29.25 30.852 -29.25 32.75 C -29.25 33.45 -28.95 34.05 -28.55 34.55 C -30.148 35.05 -31.25 36.352 -31.25 37.75 C -31.25 39.648 -29.25 41.25 -26.75 41.25 C -27.05 41.648 -27.25 42.148 -27.25 42.75 C -27.25 44.05 -25.852 45.148 -20.25 45.25 L -19.95 45.25 C -14.75 45.25 -14.25 47.25 -14.25 51.25 C -14.25 51.25 -14.25 56.25 -13.25 52.25 C -12.25 48.25 -12.25 44.25 -12.25 44.25 C -12.25 42.05 -14.05 40.25 -16.25 40.25 Z " fill="rgb(176,190,197)"/><path d=" M -13.25 50.25 L -15.25 50.25 L -15.25 56.25 L -13.25 56.25 C -12.648 56.25 -12.25 55.852 -12.25 55.25 L -12.25 51.25 C -12.25 50.648 -12.648 50.25 -13.25 50.25 Z " fill="rgb(121,85,72)"/></g><path d=" M 29.003 218.304 L 54.741 218.304 L 54.741 278.337 L 29.003 278.337 L 29.003 218.304 L 29.003 218.304 Z " fill="rgb(191,87,99)"/><path d=" M 389.322 223.761 L 415.059 223.761 L 415.059 278.337 L 389.322 278.337 L 389.322 223.761 L 389.322 223.761 Z " fill="rgb(241,184,105)"/><path d=" M 151.254 141.898 L 267.071 141.898 L 267.071 196.473 L 151.254 196.473 L 151.254 141.898 L 151.254 141.898 Z " fill="rgb(116,162,217)"/><path d=" M 292.808 196.473 L 376.454 196.473 L 359.905 149.675 C 358.271 145.057 353.258 141.898 347.577 141.898 L 292.808 141.898 L 292.808 196.473 L 292.808 196.473 Z " fill="rgb(116,162,217)"/><path d=" M 67.609 141.898 L 125.517 141.898 L 125.517 196.473 L 67.609 196.473 L 67.609 141.898 L 67.609 141.898 Z " fill="rgb(116,162,217)"/><g><path d=" M 67.609 165.66 C 85.567 169.011 105.011 171.516 125.517 173.017 L 125.517 141.898 L 67.609 141.898 L 67.609 165.66 L 67.609 165.66 Z " fill="rgb(232,232,232)"/><path d=" M 151.254 174.332 C 157.618 174.523 164.046 174.643 170.557 174.643 C 205.206 174.643 237.956 171.816 267.071 166.811 L 267.071 141.898 L 151.254 141.898 L 151.254 174.332 L 151.254 174.332 Z " fill="rgb(232,232,232)"/><path d=" M 349.501 142.165 C 348.857 142.078 348.246 141.898 347.577 141.898 L 292.808 141.898 L 292.808 161.61 C 314.936 156.393 334.142 149.784 349.501 142.165 Z " fill="rgb(232,232,232)"/></g><ellipse vector-effect="non-scaling-stroke" cx="299.24263024417417" cy="65.49116046151633" rx="38.60559950781328" ry="32.74558023075804" fill="rgb(235,106,128)"/><ellipse vector-effect="non-scaling-stroke" cx="299.24263024417365" cy="65.49116046151624" rx="12.868533169271075" ry="10.915193410252684" fill="rgb(227,74,96)"/><path d=" M 170.557 43.661 L 93.346 43.661 C 86.236 43.661 80.478 48.545 80.478 54.576 L 80.478 87.322 C 80.478 93.352 86.236 98.237 93.346 98.237 L 170.557 98.237 C 177.667 98.237 183.426 93.352 183.426 87.322 L 183.426 54.576 C 183.426 48.545 177.667 43.661 170.557 43.661 Z " fill="rgb(235,106,128)"/><path d=" M 234.9 43.661 L 196.294 43.661 C 189.185 43.661 183.426 48.545 183.426 54.576 L 183.426 87.322 C 183.426 93.352 189.185 98.237 196.294 98.237 L 234.9 98.237 C 242.01 98.237 247.768 93.352 247.768 87.322 L 247.768 54.576 C 247.768 48.545 242.01 43.661 234.9 43.661 Z " fill="rgb(49,125,201)"/><path d=" M 144.82 0 L 106.215 0 C 99.105 0 93.346 4.885 93.346 10.915 L 93.346 32.746 C 93.346 38.776 99.105 43.661 106.215 43.661 L 144.82 43.661 C 151.93 43.661 157.689 38.776 157.689 32.746 L 157.689 10.915 C 157.689 4.885 151.93 0 144.82 0 Z " fill="rgb(49,125,201)"/><path d=" M 286.374 212.846 L 312.111 212.846 L 312.111 223.761 L 286.374 223.761 L 286.374 212.846 L 286.374 212.846 Z " fill="rgb(232,232,232)"/><path d=" M 74.043 212.846 L 151.254 212.846 L 151.254 223.761 L 74.043 223.761 L 74.043 212.846 L 74.043 212.846 Z " fill="rgb(232,232,232)"/><path d=" M 61.175 92.779 L 344.282 92.779 L 344.282 103.694 L 61.175 103.694 L 61.175 92.779 L 61.175 92.779 Z " fill="rgb(200,175,143)"/><path d=" M 170.557 76.406 L 157.689 76.406 L 157.689 65.491 L 106.215 65.491 L 106.215 54.576 L 164.123 54.576 C 167.681 54.576 170.557 57.016 170.557 60.034 L 170.557 76.406 L 170.557 76.406 Z " fill="rgb(227,74,96)"/></g></g></g></svg>