<?xml version="1.0" encoding="UTF-8" standalone="no"?><!-- Generator: Gravit.io --><svg xmlns="http://www.w3.org/2000/svg" xmlns:xlink="http://www.w3.org/1999/xlink" style="isolation:isolate" viewBox="0 0 300 300" width="300pt" height="300pt"><defs><clipPath id="_clipPath_A2RuQf50qr7zbX7lVpRUjLThnqazOax9"><rect width="300" height="300"/></clipPath></defs><g clip-path="url(#_clipPath_A2RuQf50qr7zbX7lVpRUjLThnqazOax9)"><path d=" M 246.05 93.62 C 246.05 41.89 203.073 0 150 0 C 96.927 0 53.95 41.89 53.95 93.62 C 53.95 145.351 150 300 150 300 C 150 300 246.05 145.26 246.05 93.62 L 246.05 93.62 Z  M 89.888 96.961 C 89.888 64.601 116.801 38.369 150 38.369 C 183.199 38.369 210.112 64.601 210.112 96.961 C 210.112 129.371 183.159 155.552 150 155.552 C 116.841 155.552 89.888 129.371 89.888 96.961 L 89.888 96.961 Z " fill="rgb(202,107,74)"/></g></svg>