<?xml version="1.0" encoding="UTF-8" standalone="no"?><!-- Generator: Gravit.io --><svg xmlns="http://www.w3.org/2000/svg" xmlns:xlink="http://www.w3.org/1999/xlink" style="isolation:isolate" viewBox="0 0 560 315" width="560pt" height="315pt"><defs><clipPath id="_clipPath_ve8KBJrfQV3dVEvpGeUwoGNcGnk17YfL"><rect width="560" height="315"/></clipPath></defs><g clip-path="url(#_clipPath_ve8KBJrfQV3dVEvpGeUwoGNcGnk17YfL)"><g><path d=" M 384.16 315 L 337.975 315 C 337.768 162.061 186.942 38.122 0.825 37.952 L 0.825 0 C 212.535 0 384.16 141.03 384.16 315 L 384.16 315 Z " fill="rgb(239,83,80)"/><path d=" M 337.975 315 L 291.79 315 C 291.62 183.009 161.45 76.043 0.825 75.904 L 0.825 37.952 C 186.942 38.122 337.768 162.061 337.975 315 L 337.975 315 Z " fill="rgb(255,174,77)"/><path d=" M 199.42 315 L 153.235 315 C 153.142 245.863 84.96 189.836 0.825 189.759 L 0.825 151.807 C 110.459 151.901 199.306 224.91 199.42 315 L 199.42 315 Z " fill="rgb(119,188,77)"/><path d=" M 291.79 315 L 245.605 315 C 245.461 203.96 135.953 113.974 0.825 113.855 L 0.825 75.904 C 161.45 76.043 291.62 183.009 291.79 315 L 291.79 315 Z " fill="rgb(255,230,113)"/><path d=" M 245.605 315 L 199.42 315 C 199.306 224.91 110.459 151.901 0.825 151.807 L 0.825 113.855 C 135.953 113.974 245.461 203.96 245.605 315 L 245.605 315 Z " fill="rgb(112,239,239)"/></g></g></svg>