<?xml version="1.0" encoding="UTF-8" standalone="no"?><!-- Generator: Gravit.io --><svg xmlns="http://www.w3.org/2000/svg" xmlns:xlink="http://www.w3.org/1999/xlink" style="isolation:isolate" viewBox="0 0 90 90" width="90pt" height="90pt"><defs><clipPath id="_clipPath_V1uZt2fNp8WvJOAIW17FmfrXGZT3nYaE"><rect width="90" height="90"/></clipPath></defs><g clip-path="url(#_clipPath_V1uZt2fNp8WvJOAIW17FmfrXGZT3nYaE)"><path d=" M 50.513 57.326 L 49.765 52.965 C 48.566 54.522 46.721 55.731 44.442 56.122 C 39.599 56.951 35.223 53.66 34.401 48.862 L 34.252 47.994 C 32.873 50.246 30.502 51.775 27.653 52.263 C 22.246 53.19 16.935 49.61 16.001 44.157 C 15.067 38.705 18.883 33.561 24.29 32.635 C 26.284 32.293 28.105 32.655 29.679 33.283 C 30.506 29.554 33.803 26.515 37.786 25.833 C 43.192 24.906 48.503 28.486 49.438 33.938 C 50.459 33.09 51.809 32.41 53.524 32.116 C 57.227 31.481 60.877 33.994 63.261 46.162 L 63.373 46.817 C 65.316 58.157 71.2 58.272 82.595 56.319 C 82.595 56.319 96.838 53.879 85.817 58.012 C 74.796 62.146 63.402 64.098 63.402 64.098 C 57.135 65.172 51.335 62.125 50.513 57.326 Z " fill="rgb(176,190,197)"/></g></svg>