<?xml version="1.0" encoding="UTF-8" standalone="no"?><!-- Generator: Gravit.io --><svg xmlns="http://www.w3.org/2000/svg" xmlns:xlink="http://www.w3.org/1999/xlink" style="isolation:isolate" viewBox="0 0 90 90" width="90pt" height="90pt"><defs><clipPath id="_clipPath_ISkOaICCyZAAVwgNYDC3yH8pl9e2pSDi"><rect width="90" height="90"/></clipPath></defs><g clip-path="url(#_clipPath_ISkOaICCyZAAVwgNYDC3yH8pl9e2pSDi)"><clipPath id="_clipPath_7apCUPwT3eHnLwaHpnLjOwf0gYmj6Dt3"><rect x="0" y="0" width="90" height="90" transform="matrix(1,0,0,1,0,0)" fill="rgb(255,255,255)"/></clipPath><g clip-path="url(#_clipPath_7apCUPwT3eHnLwaHpnLjOwf0gYmj6Dt3)"><g><circle vector-effect="non-scaling-stroke" cx="44.517432459014344" cy="45" r="45" fill="rgb(146,143,161)"/><circle vector-effect="non-scaling-stroke" cx="44.517432459014344" cy="45" r="19" fill="rgb(232,232,232)"/><clipPath id="_clipPath_BrjAkKbdXnD5GbwIIBHrCjudmIBdPWLW"><rect x="-77.578" y="-227.03" width="560" height="315" transform="matrix(1,0,0,1,0,0)" fill="rgb(255,255,255)"/></clipPath><g clip-path="url(#_clipPath_BrjAkKbdXnD5GbwIIBHrCjudmIBdPWLW)"><g><path d=" M 53.203 21.958 C 54.008 21.846 54.83 21.797 55.664 21.797 C 67.888 21.797 77.812 32.194 77.812 45 C 77.812 57.806 67.888 68.203 55.664 68.203 C 54.83 68.203 54.008 68.155 53.203 68.042 C 64.273 66.774 72.89 56.933 72.89 45 C 72.89 33.067 64.273 23.226 53.203 21.958 Z " fill-rule="evenodd" fill="rgb(232,232,232)"/></g></g></g></g></g></svg>