<?xml version="1.0" encoding="UTF-8" standalone="no"?><!-- Generator: Gravit.io --><svg xmlns="http://www.w3.org/2000/svg" xmlns:xlink="http://www.w3.org/1999/xlink" style="isolation:isolate" viewBox="0 0 560 315" width="560pt" height="315pt"><defs><clipPath id="_clipPath_pkdjkb0IH0JqXlrF6AfyMSzlQjnHmhye"><rect width="560" height="315"/></clipPath></defs><g clip-path="url(#_clipPath_pkdjkb0IH0JqXlrF6AfyMSzlQjnHmhye)"><g><path d=" M 116.912 24.231 L 280 24.231 L 380.359 24.231 C 443.107 24.231 493.973 67.624 493.973 121.154 L 493.973 244.367 C 493.973 252.028 495.396 259.49 498.054 266.539 L 316.063 266.539 C 303.87 266.539 291.17 264.777 280 261.762 C 271.554 259.482 263.409 256.553 255.852 252.731 C 243.473 246.467 248.693 230.193 263.109 230.193 L 280 230.193 L 337.754 230.193 C 345.597 230.193 351.955 224.768 351.955 218.077 C 351.955 211.385 345.597 205.962 337.754 205.962 L 280 205.962 L 223.281 205.962 C 206.425 205.962 190.219 200.422 178.027 190.495 C 168.776 182.963 175.05 169.616 187.833 169.616 L 280 169.616 C 287.843 169.616 294.202 164.191 294.202 157.5 C 294.202 150.808 287.843 145.385 280 145.385 L 147.334 145.385 C 131.615 145.385 116.715 139.174 107.076 128.573 C 99.867 120.647 106.467 109.039 118.303 109.039 L 251.596 109.039 C 259.44 109.039 265.798 103.614 265.798 96.923 C 265.798 90.231 259.44 84.808 251.596 84.808 L 137.142 84.808 C 101.642 84.808 69.863 66.033 57.376 37.685 L 44.277 7.948 C 64.394 18.163 93.018 24.231 116.912 24.231 L 116.912 24.231 Z " fill="rgb(236,242,255)"/><g><path d=" M 223.281 205.962 C 206.425 205.962 190.219 200.422 178.027 190.495 C 168.776 182.963 175.05 169.616 187.833 169.616 L 280 169.616 L 280 205.962 L 223.281 205.962 Z " fill="rgb(217,229,255)"/><path d=" M 147.334 145.385 C 131.615 145.385 116.715 139.174 107.076 128.573 C 99.867 120.647 106.467 109.039 118.303 109.039 L 251.596 109.039 C 259.44 109.039 265.798 103.614 265.798 96.923 C 265.798 90.231 259.44 84.808 251.596 84.808 L 137.142 84.808 C 101.642 84.808 69.863 66.033 57.376 37.685 L 44.277 7.948 C 64.394 18.163 93.018 24.231 116.912 24.231 L 280 24.231 L 280 145.385 L 147.334 145.385 Z " fill="rgb(217,229,255)"/><path d=" M 263.109 230.193 L 280 230.193 L 280 261.762 C 271.554 259.482 263.409 256.553 255.852 252.731 C 243.473 246.467 248.693 230.193 263.109 230.193 Z " fill="rgb(217,229,255)"/><path d=" M 51.844 0 L 280 0 L 380.359 0 C 458.663 0 522.376 54.354 522.376 121.154 L 522.376 302.873 C 522.376 311.325 512.497 317.076 503.431 314.291 C 480.783 307.44 465.569 289.078 465.569 268.598 L 465.569 121.154 C 465.569 81.069 427.347 48.462 380.359 48.462 L 280 48.462 L 116.917 48.462 C 88.209 48.462 60.693 38.204 41.401 20.314 C 33.011 12.56 39.524 0 51.844 0 L 51.844 0 Z " fill="rgb(217,229,255)"/></g><path d=" M 41.401 20.314 C 33.011 12.56 39.524 0 51.844 0 L 280 0 L 280 48.462 L 116.917 48.462 C 88.208 48.462 60.693 38.204 41.401 20.314 L 41.401 20.314 Z " fill="rgb(191,214,255)"/></g></g></svg>